<?xml version="1.0" encoding="UTF-8" standalone="no"?>
<!DOCTYPE svg PUBLIC "-//W3C//DTD SVG 1.1//EN" "http://www.w3.org/Graphics/SVG/1.1/DTD/svg11.dtd">
<svg width="100%" height="100%" viewBox="0 0 144 45" version="1.1" xmlns="http://www.w3.org/2000/svg" xmlns:xlink="http://www.w3.org/1999/xlink" xml:space="preserve" xmlns:serif="http://www.serif.com/" style="fill-rule:evenodd;clip-rule:evenodd;stroke-linejoin:round;stroke-miterlimit:2;">
    <g id="logo" transform="matrix(0.0624905,0,0,0.0624905,-21.8985,37.3581)">
        <g id="text" transform="matrix(13.8671,0,0,13.8671,-36.8838,-1067.3)">
            <g id="UHURU">
                <g transform="matrix(17.1769,0,0,17.1769,68.9767,56.804)">
                    <path d="M0.366,0.017C0.544,0.017 0.671,-0.099 0.671,-0.271L0.671,-0.7L0.474,-0.7L0.474,-0.275C0.474,-0.206 0.43,-0.162 0.366,-0.162C0.301,-0.162 0.257,-0.206 0.257,-0.275L0.257,-0.7L0.06,-0.7L0.06,-0.271C0.06,-0.099 0.187,0.017 0.366,0.017Z" style="fill:rgb(249,139,42);fill-rule:nonzero;"/>
                </g>
                <g transform="matrix(17.1769,0,0,17.1769,87.3903,56.804)">
                    <path d="M0.472,-0.7L0.472,-0.448L0.262,-0.448L0.262,-0.7L0.067,-0.7L0.067,0L0.262,0L0.262,-0.269L0.472,-0.269L0.472,0L0.667,0L0.667,-0.7L0.472,-0.7Z" style="fill:rgb(249,139,42);fill-rule:nonzero;"/>
                </g>
                <g transform="matrix(17.1769,0,0,17.1769,105.838,56.804)">
                    <path d="M0.366,0.017C0.544,0.017 0.671,-0.099 0.671,-0.271L0.671,-0.7L0.474,-0.7L0.474,-0.275C0.474,-0.206 0.43,-0.162 0.366,-0.162C0.301,-0.162 0.257,-0.206 0.257,-0.275L0.257,-0.7L0.06,-0.7L0.06,-0.271C0.06,-0.099 0.187,0.017 0.366,0.017Z" style="fill:rgb(249,139,42);fill-rule:nonzero;"/>
                </g>
                <g transform="matrix(17.1769,0,0,17.1769,124.252,56.804)">
                    <path d="M0.444,0L0.659,0L0.52,-0.254C0.589,-0.296 0.631,-0.366 0.631,-0.452C0.631,-0.599 0.522,-0.7 0.371,-0.7L0.068,-0.7L0.068,0L0.261,0L0.261,-0.214L0.33,-0.214L0.444,0ZM0.261,-0.529L0.349,-0.529C0.402,-0.529 0.433,-0.497 0.433,-0.453C0.433,-0.409 0.402,-0.376 0.349,-0.376L0.261,-0.376L0.261,-0.529Z" style="fill:rgb(249,139,42);fill-rule:nonzero;"/>
                </g>
                <g transform="matrix(17.1769,0,0,17.1769,141.704,56.804)">
                    <path d="M0.366,0.017C0.544,0.017 0.671,-0.099 0.671,-0.271L0.671,-0.7L0.474,-0.7L0.474,-0.275C0.474,-0.206 0.43,-0.162 0.366,-0.162C0.301,-0.162 0.257,-0.206 0.257,-0.275L0.257,-0.7L0.06,-0.7L0.06,-0.271C0.06,-0.099 0.187,0.017 0.366,0.017Z" style="fill:rgb(249,139,42);fill-rule:nonzero;"/>
                </g>
            </g>
            <g id="notam">
                <g transform="matrix(17.1769,0,0,17.1769,77.1605,74.6709)">
                    <path d="M0.341,-0.551C0.248,-0.551 0.166,-0.496 0.129,-0.416L0.123,-0.54L0.098,-0.54L0.098,0L0.13,0L0.13,-0.314C0.13,-0.426 0.224,-0.521 0.335,-0.521C0.451,-0.521 0.521,-0.443 0.521,-0.314L0.521,0L0.553,0L0.553,-0.32C0.553,-0.459 0.471,-0.551 0.341,-0.551Z" style="fill:rgb(23,22,27);fill-rule:nonzero;"/>
                </g>
                <g transform="matrix(17.1769,0,0,17.1769,89.5451,74.6709)">
                    <path d="M0.331,0.011C0.493,0.011 0.613,-0.109 0.613,-0.27C0.613,-0.431 0.493,-0.551 0.331,-0.551C0.171,-0.551 0.05,-0.432 0.05,-0.27C0.05,-0.109 0.171,0.011 0.331,0.011ZM0.331,-0.02C0.189,-0.02 0.083,-0.127 0.083,-0.27C0.083,-0.414 0.189,-0.52 0.331,-0.52C0.474,-0.52 0.58,-0.413 0.58,-0.27C0.58,-0.127 0.474,-0.02 0.331,-0.02Z" style="fill:rgb(23,22,27);fill-rule:nonzero;"/>
                </g>
                <g transform="matrix(17.1769,0,0,17.1769,102.101,74.6709)">
                    <path d="M0.3,-0.031C0.216,-0.031 0.168,-0.081 0.168,-0.166L0.168,-0.511L0.364,-0.511L0.364,-0.539L0.168,-0.539L0.168,-0.699L0.136,-0.699L0.136,-0.539L0.012,-0.539L0.012,-0.511L0.136,-0.511L0.136,-0.165C0.136,-0.062 0.197,0 0.298,0L0.368,0L0.368,-0.031L0.3,-0.031Z" style="fill:rgb(23,22,27);fill-rule:nonzero;"/>
                </g>
                <g transform="matrix(17.1769,0,0,17.1769,109.9,74.6709)">
                    <path d="M0.577,-0.54L0.572,-0.399C0.529,-0.49 0.439,-0.55 0.326,-0.55C0.169,-0.55 0.05,-0.43 0.05,-0.27C0.05,-0.11 0.169,0.01 0.326,0.01C0.439,0.01 0.529,-0.05 0.572,-0.141L0.576,0L0.604,0L0.604,-0.54L0.577,-0.54ZM0.327,-0.021C0.188,-0.021 0.083,-0.128 0.083,-0.27C0.083,-0.412 0.188,-0.519 0.327,-0.519C0.469,-0.519 0.571,-0.414 0.571,-0.27C0.571,-0.126 0.469,-0.021 0.327,-0.021Z" style="fill:rgb(23,22,27);fill-rule:nonzero;"/>
                </g>
                <g transform="matrix(17.1769,0,0,17.1769,123.332,74.6709)">
                    <path d="M0.686,-0.551C0.593,-0.551 0.521,-0.498 0.49,-0.413C0.468,-0.498 0.404,-0.551 0.318,-0.551C0.232,-0.551 0.162,-0.505 0.128,-0.43L0.123,-0.54L0.098,-0.54L0.098,0L0.13,0L0.13,-0.316C0.131,-0.438 0.205,-0.521 0.313,-0.521C0.407,-0.521 0.467,-0.448 0.467,-0.334L0.467,0L0.499,0L0.499,-0.316C0.5,-0.438 0.574,-0.521 0.681,-0.521C0.774,-0.521 0.835,-0.447 0.835,-0.334L0.836,0L0.867,0L0.867,-0.341C0.867,-0.467 0.795,-0.551 0.686,-0.551Z" style="fill:rgb(23,22,27);fill-rule:nonzero;"/>
                </g>
            </g>
        </g>
        <g id="icon" transform="matrix(2.13728,0,0,2.13728,229.199,1143.73)">
            <g transform="matrix(6.51381,0,0,6.51381,131.543,-650.459)">
                <path d="M0,-5C-2.431,-1.247 -3.588,2.784 -2.338,7.223C-1.103,11.608 1.748,14.652 5.939,16.788C5.795,16.366 5.708,16.123 5.63,15.879C4.785,13.263 4.771,10.656 5.788,8.087C6.04,7.45 6.406,6.756 7.241,6.801C8.012,6.844 8.429,7.495 8.546,8.137C8.79,9.482 9,10.856 8.989,12.216C8.982,13.273 8.619,14.328 8.413,15.391C10.189,14.395 12.075,12.329 13.03,10.298C14.704,6.738 14.333,3.196 12.855,-0.304C12.029,-2.258 11.559,-4.274 11.338,-6.384C11.098,-8.684 10.805,-10.99 10.35,-13.256C10.003,-14.978 8.753,-16.814 7.873,-17.405C8.617,-15.075 8.851,-12.737 8.118,-10.387C7.926,-9.768 7.615,-9.153 7.225,-8.635C6.724,-7.965 6.066,-8.121 5.824,-8.933C5.708,-9.321 5.671,-9.757 5.709,-10.161C5.871,-11.863 6.126,-13.557 6.251,-15.262C6.425,-17.617 5.835,-19.78 4.406,-21.788C4.406,-19.898 4.571,-18.098 4.373,-16.338C3.908,-12.198 2.252,-8.478 0,-5" style="fill:rgb(249,139,42);"/>
            </g>
            <g transform="matrix(6.51381,0,0,6.51381,248.49,-578.435)">
                <path d="M0,-14.121C-2.655,-17.408 -4.723,-20.921 -4.104,-25.443C-4.421,-24.684 -4.698,-23.918 -4.828,-23.128C-5.385,-19.749 -4.588,-16.566 -3.518,-13.378C-2.601,-10.649 -1.701,-7.866 -1.27,-5.034C-0.596,-0.617 -3.123,3.767 -7.111,5.872C-7.236,5.938 -7.361,6.001 -7.488,6.062C-12.566,8.502 -18.634,6.492 -21.568,1.682C-26.141,-5.812 -22.826,-12.488 -20.979,-15.596C-20.345,-17.036 -19.552,-18.422 -18.622,-19.767C-17.698,-21.104 -16.974,-22.612 -16.381,-24.129C-16.033,-25.017 -16.095,-26.065 -15.986,-27.046C-16.086,-27.073 -16.057,-27.065 -16.156,-27.091C-16.596,-26.034 -16.911,-24.898 -17.506,-23.936C-18.431,-22.439 -19.551,-21.063 -20.582,-19.63C-22.429,-17.062 -24.536,-14.652 -26.081,-11.898C-28.265,-8.01 -28.639,-5.089 -28.026,-1.35C-26.959,5.167 -21.925,10.343 -15.419,11.67C-9.046,12.97 -2.413,10.149 1.126,4.632C4.863,-1.197 4.404,-8.671 0,-14.121" style="fill:rgb(249,139,42);"/>
            </g>
        </g>
    </g>
</svg>
